<svg id="Outline_2_credit-card" data-name="Outline 2=credit-card" xmlns="http://www.w3.org/2000/svg" xmlns:xlink="http://www.w3.org/1999/xlink" width="24" height="24" viewBox="0 0 24 24">
  <defs>
    <clipPath id="clip-path"/>
  </defs>
  <rect id="Outline_2_credit-card_Background_" data-name="Outline 2=credit-card (Background)" width="24" height="24" fill="none"/>
  <path id="Mask" d="M17,14H3a3,3,0,0,1-3-3V3A3,3,0,0,1,3,0H17a3,3,0,0,1,3,3v8A3,3,0,0,1,17,14ZM2,6v5a1,1,0,0,0,1,1H17a1,1,0,0,0,1-1V6ZM3,2A1,1,0,0,0,2,3V4H18V3a1,1,0,0,0-1-1Zm12,8H13a1,1,0,0,1,0-2h2a1,1,0,1,1,0,2ZM9,10H5A1,1,0,1,1,5,8H9a1,1,0,0,1,0,2Z" transform="translate(2 5)" fill="#343c44"/>
</svg>
