<svg xmlns="http://www.w3.org/2000/svg" xmlns:xlink="http://www.w3.org/1999/xlink" width="40" height="40" viewBox="0 0 40 40">
  <defs>
    <clipPath id="clip-path">
      <rect id="diagram_1_Background_Mask_" data-name="diagram 1 (Background/Mask)" width="40" height="40" fill="none"/>
    </clipPath>
  </defs>
  <g id="diagram_1" data-name="diagram 1" clip-path="url(#clip-path)">
    <path id="Vector" d="M37.578,24.3V1.172A1.172,1.172,0,0,0,36.406,0H31.718a1.172,1.172,0,0,0-1.172,1.172V24.3H28.2V8.984a1.172,1.172,0,0,0-1.172-1.172H22.343a1.172,1.172,0,0,0-1.172,1.172V24.3H18.828V13.281a1.172,1.172,0,0,0-1.172-1.172H12.969A1.172,1.172,0,0,0,11.8,13.281V24.3H9.453v-8.2a1.172,1.172,0,0,0-1.172-1.172H3.594a1.172,1.172,0,0,0-1.172,1.172v8.2H1.172a1.172,1.172,0,1,0,0,2.344H38.828a1.172,1.172,0,1,0,0-2.344Z" transform="translate(0 13.359)" fill="#5367ff"/>
    <path id="Vector-2" data-name="Vector" d="M23.5,17.784A43.3,43.3,0,0,0,36.558,4.39L37.7,8.637a1.27,1.27,0,0,0,1.435.829A1.161,1.161,0,0,0,39.96,8.03L38.041.869A1.172,1.172,0,0,0,36.605.04L29.444,1.959a1.172,1.172,0,1,0,.607,2.264l4.614-1.236A40.681,40.681,0,0,1,22.2,15.839c-6.705,4.512-14.172,7-21.024,7a1.172,1.172,0,1,0,0,2.344h0C8.486,25.18,16.417,22.553,23.5,17.784Z" fill="#5367ff"/>
  </g>
</svg>
