<svg id="add-user_1_1" data-name="add-user (1) 1" xmlns="http://www.w3.org/2000/svg" xmlns:xlink="http://www.w3.org/1999/xlink" width="40" height="40" viewBox="0 0 40 40">
  <defs>
    <clipPath id="clip-path">
      <rect id="add-user_1_1_Background_Mask_" data-name="add-user (1) 1 (Background/Mask)" width="40" height="40" fill="none"/>
    </clipPath>
  </defs>
  <rect id="add-user_1_1_Background_Mask_2" data-name="add-user (1) 1 (Background/Mask)" width="40" height="40" fill="none"/>
  <g id="add-user_1_1-2" data-name="add-user (1) 1" clip-path="url(#clip-path)">
    <path id="Vector" d="M8.4,16.8a8.4,8.4,0,1,1,8.4-8.4A8.4,8.4,0,0,1,8.4,16.8Z" transform="translate(11 3.25)" fill="#5367ff"/>
    <path id="Vector-2" data-name="Vector" d="M19.2,18.925A11.212,11.212,0,0,1,16.913,3.913,12.559,12.559,0,0,1,8.413,0,13.766,13.766,0,0,0,0,12.675v2.5a3.761,3.761,0,0,0,3.75,3.75H19.2Z" transform="translate(2.5 19.824)" fill="#5367ff"/>
    <path id="Vector-3" data-name="Vector" d="M5.4,16.834a8.749,8.749,0,1,1,3.35.667A8.751,8.751,0,0,1,5.4,16.834Z" transform="translate(20 21.25)" fill="#5367ff"/>
  </g>
</svg>
