<svg id="Outline_2_upload" data-name="Outline 2=upload" xmlns="http://www.w3.org/2000/svg" xmlns:xlink="http://www.w3.org/1999/xlink" width="24" height="24" viewBox="0 0 24 24">
  <defs>
    <clipPath id="clip-path"/>
  </defs>
  <rect id="Outline_2_upload_Background_" data-name="Outline 2=upload (Background)" width="24" height="24" fill="none"/>
  <path id="Mask" d="M7,16V8H7L4.6,9.8A1,1,0,1,1,3.4,8.2l4-3a1,1,0,0,1,1.175-.018l4,2.813a1,1,0,0,1-1.15,1.636L9,7.924Q9,7.962,9,8v8a1,1,0,1,1-2,0ZM14,3V2H2V3A1,1,0,1,1,0,3V1A1,1,0,0,1,1,0H15a1,1,0,0,1,1,1V3a1,1,0,1,1-2,0Z" transform="translate(4 4)" fill="#343c44"/>
</svg>
