<svg id="Icon" xmlns="http://www.w3.org/2000/svg" xmlns:xlink="http://www.w3.org/1999/xlink" width="70" height="70" viewBox="0 0 70 70">
  <defs>
    <clipPath id="clip-path">
      <rect id="gift_1_Background_Mask_" data-name="gift 1 (Background/Mask)" width="50" height="50" fill="none"/>
    </clipPath>
  </defs>
  <rect id="Rectangle_437" data-name="Rectangle 437" width="70" height="70" rx="10" fill="#e2f2ff"/>
  <g id="gift_1" data-name="gift 1" transform="translate(10 10)">
    <rect id="gift_1_Background_Mask_2" data-name="gift 1 (Background/Mask)" width="50" height="50" fill="none"/>
    <g id="gift_1-2" data-name="gift 1" clip-path="url(#clip-path)">
      <path id="Gift_1_" d="M26.563,41.666V20.833h13.02a5.162,5.162,0,0,0,1.042-.105V38.542A3.128,3.128,0,0,1,37.5,41.666Zm-8.333,0V20.833h6.25V41.666Zm-13.021,0a3.128,3.128,0,0,1-3.125-3.125V20.728a5.16,5.16,0,0,0,1.041.105H16.146V41.666ZM3.125,18.75A3.128,3.128,0,0,1,0,15.625V11.458A3.128,3.128,0,0,1,3.125,8.333h9.906A5.2,5.2,0,1,1,21.354,2.1a5.2,5.2,0,1,1,8.323,6.236h9.905a3.129,3.129,0,0,1,3.126,3.125v4.167a3.128,3.128,0,0,1-3.126,3.125Z" transform="translate(3.646 4.166)" fill="#5367ff"/>
    </g>
  </g>
</svg>
