<svg id="Icon" xmlns="http://www.w3.org/2000/svg" xmlns:xlink="http://www.w3.org/1999/xlink" width="70" height="70" viewBox="0 0 70 70">
  <defs>
    <clipPath id="clip-path">
      <rect id="deposit_1_Background_Mask_" data-name="deposit 1 (Background/Mask)" width="50" height="50" fill="none"/>
    </clipPath>
  </defs>
  <rect id="Rectangle_437" data-name="Rectangle 437" width="70" height="70" rx="10" fill="#e2f2ff"/>
  <g id="deposit_1" data-name="deposit 1" transform="translate(10 10)">
    <rect id="deposit_1_Background_Mask_2" data-name="deposit 1 (Background/Mask)" width="50" height="50" fill="none"/>
    <g id="deposit_1-2" data-name="deposit 1" clip-path="url(#clip-path)">
      <g id="Deposit" transform="translate(1.042 5.209)">
        <path id="Vector" d="M36.173,5.314a2.365,2.365,0,0,0-1.8-.106l-6.5,2.01c-1.646,1.5-2.271,1.115-14.333,1.115a1.042,1.042,0,1,1,0-2.083c12.5,0,12.073.24,12.99-.677a2.135,2.135,0,0,0,.552-1.406A2.083,2.083,0,0,0,25,2.083H13.854C12.406,2.083,11.2,0,6.979,0H0V10.854l1.344.76a28.938,28.938,0,0,0,12.5,3.8,28.938,28.938,0,0,0,12.9-2.083l9.375-3.781a2.354,2.354,0,0,0,1.26-2.9h0A2.365,2.365,0,0,0,36.173,5.314Z" transform="translate(10.417 23.959)" fill="#5367ff"/>
        <path id="Vector-2" data-name="Vector" d="M0,15.625V0H8.333V15.625Z" transform="translate(0 21.875)" fill="#5367ff"/>
        <path id="Vector-3" data-name="Vector" d="M3.051,17.782a10.417,10.417,0,1,1,7.366,3.051A10.413,10.413,0,0,1,3.051,17.782Z" transform="translate(20.833)" fill="#5367ff"/>
      </g>
    </g>
  </g>
</svg>
