<svg xmlns="http://www.w3.org/2000/svg" width="115.112" height="50.037" viewBox="0 0 115.112 50.037">
  <g id="Graph" transform="translate(0.747 -2.991)">
    <path id="Vector_48" data-name="Vector 48" d="M0,48l6.779-7.619A14,14,0,0,0,9.758,35l1.093-3.742a14,14,0,0,1,2.411-4.7l.049-.063a2.133,2.133,0,0,1,3.38.026l3.233,4.265a4.122,4.122,0,0,0,3.285,1.632h0a3.359,3.359,0,0,1,2.986,1.82l1.973,3.829a2.312,2.312,0,0,0,4.257-.35l1.4-4.355a14,14,0,0,1,.738-1.835l1.126-2.313A14,14,0,0,1,38.839,25l.555-.506a14,14,0,0,0,3.44-4.853l3.19-7.492a14,14,0,0,1,.92-1.791L50.2,5.01a2.625,2.625,0,0,1,4.754.6l1.69,5.557.033.106,2.382,7.612a14,14,0,0,0,.828,2.058l1.451,2.914A14,14,0,0,1,62.8,30.1v1.881a14,14,0,0,0,1.176,5.617l.189.431a1.543,1.543,0,0,0,2.811.036l2.626-5.6.048-.1,3.955-8.256a9.512,9.512,0,0,1,2.164-2.914l.105-.1a4.4,4.4,0,0,1,2.967-1.151h0a1.707,1.707,0,0,1,1.707,1.707v5.018a14,14,0,0,0,.561,3.924l1.367,4.68a14,14,0,0,0,2.62,4.961l.231.281a2.65,2.65,0,0,0,4.1,0h0a11.673,11.673,0,0,0,2.524-5.685l1.2-8.055a14,14,0,0,1,1.567-4.656l2.744-5.012q.153-.28.319-.553l1.541-2.532a1.763,1.763,0,0,1,3.1.167l2.7,5.755,4.1,8.727-2.048-4.364a12.087,12.087,0,0,0,6.537,6.12l.29.113" transform="translate(0 4.363)" fill="none" stroke="#ef4444" stroke-width="2" stroke-dasharray="0 0" opacity="0.5"/>
    <path id="Vector_49" data-name="Vector 49" d="M0,48l6.779-7.619A14,14,0,0,0,9.758,35l1.093-3.742a14,14,0,0,1,2.411-4.7l.049-.063a2.133,2.133,0,0,1,3.38.026l3.233,4.265a4.122,4.122,0,0,0,3.285,1.632h0a3.359,3.359,0,0,1,2.986,1.82l1.973,3.829a2.312,2.312,0,0,0,4.257-.35l1.4-4.355a14,14,0,0,1,.738-1.835l1.126-2.313A14,14,0,0,1,38.839,25l.555-.506a14,14,0,0,0,3.44-4.853l3.19-7.492a14,14,0,0,1,.92-1.791L50.2,5.01a2.625,2.625,0,0,1,4.754.6l1.69,5.557.033.106,2.382,7.612a14,14,0,0,0,.828,2.058l1.451,2.914A14,14,0,0,1,62.8,30.1v1.881a14,14,0,0,0,1.176,5.617l.189.431a1.543,1.543,0,0,0,2.811.036l2.626-5.6.048-.1,3.955-8.256a9.512,9.512,0,0,1,2.164-2.914l.105-.1a4.4,4.4,0,0,1,2.967-1.151h0a1.707,1.707,0,0,1,1.707,1.707v5.018a14,14,0,0,0,.561,3.924l1.367,4.68a14,14,0,0,0,2.62,4.961l.231.281a2.65,2.65,0,0,0,4.1,0h0a11.673,11.673,0,0,0,2.524-5.685l1.2-8.055a14,14,0,0,1,1.567-4.656l2.744-5.012q.153-.28.319-.553l1.541-2.532a1.763,1.763,0,0,1,3.1.167l2.7,5.755,4.1,8.727-2.048-4.364a12.087,12.087,0,0,0,6.537,6.12l.29.113" fill="none" stroke="#dc2626" stroke-width="1.5" stroke-dasharray="0 0"/>
  </g>
</svg>
