<svg id="Icon" xmlns="http://www.w3.org/2000/svg" xmlns:xlink="http://www.w3.org/1999/xlink" width="70" height="70" viewBox="0 0 70 70">
  <defs>
    <clipPath id="clip-path">
      <rect id="safety_1_Background_Mask_" data-name="safety 1 (Background/Mask)" width="50" height="50" fill="none"/>
    </clipPath>
  </defs>
  <rect id="Rectangle_437" data-name="Rectangle 437" width="70" height="70" rx="10" fill="#e2f2ff"/>
  <g id="safety_1" data-name="safety 1" transform="translate(10 10)">
    <rect id="safety_1_Background_Mask_2" data-name="safety 1 (Background/Mask)" width="50" height="50" fill="none"/>
    <g id="safety_1-2" data-name="safety 1" clip-path="url(#clip-path)">
      <g id="Safety" transform="translate(3.313 3.217)">
        <path id="Vector" d="M12.5,0V4.687H0V0Z" transform="translate(24.031 38.971)" fill="#5367ff"/>
        <path id="Vector-2" data-name="Vector" d="M16.647.562a1.568,1.568,0,0,0-.89-.543,1.658,1.658,0,0,0-1.865,1.25L11.743,9.277a3.19,3.19,0,0,1-1.46,3.834L5.908,15.632a.782.782,0,1,1-.781-1.355L9.5,11.756a1.641,1.641,0,0,0,.712-2.118A1.541,1.541,0,0,0,8.82,8.786a1.57,1.57,0,0,0-.781.209L2.7,12.125A5.489,5.489,0,0,0,0,16.842V22.77H7.812v-.906A3.906,3.906,0,0,1,9.177,18.9L12.82,15.77a2.331,2.331,0,0,0,.738-1.172L16.948,1.947a1.541,1.541,0,0,0,.052-.4h0A1.568,1.568,0,0,0,16.647.562Z" transform="translate(26.375 14.639)" fill="#5367ff"/>
        <path id="Vector-3" data-name="Vector" d="M.353.562A1.568,1.568,0,0,0,0,1.543a1.539,1.539,0,0,0,.052.406L3.442,14.606a2.326,2.326,0,0,0,.738,1.172L7.823,18.9a3.906,3.906,0,0,1,1.364,2.961v.906H17V16.842a5.487,5.487,0,0,0-2.7-4.716L8.953,8.99a1.562,1.562,0,0,0-.777-.2,1.544,1.544,0,0,0-1.392.859A1.641,1.641,0,0,0,7.5,11.763l4.375,2.521a.782.782,0,0,1-.781,1.355L6.716,13.117a3.19,3.19,0,0,1-1.46-3.834L3.108,1.272A1.66,1.66,0,0,0,1.243.019h0A1.568,1.568,0,0,0,.353.562Z" transform="translate(0 14.639)" fill="#5367ff"/>
        <path id="Vector-4" data-name="Vector" d="M12.5,0V4.687H0V0Z" transform="translate(6.844 38.971)" fill="#5367ff"/>
        <path id="Vector-5" data-name="Vector" d="M9.513,24.825A17.935,17.935,0,0,1,0,8.97V.473A10.128,10.128,0,0,0,4.737,1.778,10.123,10.123,0,0,0,9.531.7L10.938,0l1.414.707a10.129,10.129,0,0,0,4.791,1.072A10.136,10.136,0,0,0,21.875.473v8.5a17.938,17.938,0,0,1-9.514,15.854l-1.424.76Z" transform="translate(10.75)" fill="#5367ff"/>
        <path id="Vector-6" data-name="Vector" d="M2.1,13.093A14.816,14.816,0,0,1,0,5.477v-4.2A13.394,13.394,0,0,0,7.8.006L7.813,0l.016.008a13.375,13.375,0,0,0,7.8,1.272v4.2A14.816,14.816,0,0,1,7.813,18.549,14.81,14.81,0,0,1,2.1,13.093Z" transform="translate(13.875 3.494)" fill="#5367ff"/>
      </g>
    </g>
  </g>
</svg>
