<svg id="Icon" xmlns="http://www.w3.org/2000/svg" xmlns:xlink="http://www.w3.org/1999/xlink" width="70" height="70" viewBox="0 0 70 70">
  <defs>
    <clipPath id="clip-path">
      <rect id="_24-hours-phone-service_1_Background_Mask_" data-name="24-hours-phone-service 1 (Background/Mask)" width="50" height="50" fill="none"/>
    </clipPath>
  </defs>
  <rect id="Rectangle_437" data-name="Rectangle 437" width="70" height="70" rx="10" fill="#e2f2ff"/>
  <g id="_24-hours-phone-service_1" data-name="24-hours-phone-service 1" transform="translate(10 10)">
    <rect id="_24-hours-phone-service_1_Background_Mask_2" data-name="24-hours-phone-service 1 (Background/Mask)" width="50" height="50" fill="none"/>
    <g id="_24-hours-phone-service_1-2" data-name="24-hours-phone-service 1" clip-path="url(#clip-path)">
      <g id="Group" transform="translate(0 1.6)">
        <path id="Vector" d="M10.43,36.373C.834,26.775-1.634,17.067.971,14.461,3.229,12.2,5.981,8.26,10.108,13.4s2.1,6.572-.23,8.9c-1.626,1.627,1.771,5.744,5.326,9.3s7.672,6.953,9.3,5.326c2.33-2.33,3.767-4.36,8.9-.231s1.191,6.881-1.066,9.138a4.284,4.284,0,0,1-3.082.971C24.991,46.8,17.679,43.62,10.43,36.373Zm27.941,4.051a5.778,5.778,0,0,0-.5-2.1,19.02,19.02,0,0,0,8.714-13.756L42.717,22.28l3.871-2.288A19.041,19.041,0,0,0,30.007,3.412L27.72,7.283,25.432,3.412A19.014,19.014,0,0,0,11.924,11.75,10.893,10.893,0,0,0,9.488,9.5,22.272,22.272,0,1,1,38.23,41.918,5.55,5.55,0,0,0,38.372,40.424ZM33.211,27.1V24.107H27.728V22.273L32.5,14.732h3.7V21.6h1.47v2.507H36.2V27.1ZM17.9,27.1a7.582,7.582,0,0,1-.139-1.332c0-4.565,5.345-5.378,5.345-7.16a1.222,1.222,0,0,0-1.332-1.228c-1.176,0-1.833,1.314-1.833,1.314l-2.248-1.5a4.77,4.77,0,0,1,4.359-2.663c2.023,0,4.219,1.158,4.219,3.787,0,3.857-4.981,4.6-5.067,6.192h5.258V27.1Z" fill="#5367ff"/>
      </g>
    </g>
  </g>
</svg>
