<svg id="Outline_2_repeat" data-name="Outline 2=repeat" xmlns="http://www.w3.org/2000/svg" xmlns:xlink="http://www.w3.org/1999/xlink" width="24" height="24" viewBox="0 0 24 24">
  <defs>
    <clipPath id="clip-path"/>
  </defs>
  <rect id="Outline_2_repeat_Background_" data-name="Outline 2=repeat (Background)" width="24" height="24" fill="none"/>
  <path id="Mask" d="M14.293,19.707a1,1,0,0,1,0-1.414L15.586,17h-12A3.564,3.564,0,0,1,0,13.471V11a1,1,0,1,1,2,0v2.471A1.562,1.562,0,0,0,3.59,15h12l-1.293-1.293a1,1,0,1,1,1.414-1.414l3,3a1,1,0,0,1,0,1.415l-3,3a1,1,0,0,1-1.414,0ZM17,9V6.53A1.562,1.562,0,0,0,15.41,5h-12L4.707,6.293A1,1,0,0,1,3.293,7.708l-3-3a1,1,0,0,1,0-1.414l3-3A1,1,0,0,1,4.707,1.707L3.415,3h12A3.564,3.564,0,0,1,19,6.53V9a1,1,0,1,1-2,0Z" transform="translate(2.5 2)" fill="#343c44"/>
</svg>
