<svg id="Outline_2_external-link" data-name="Outline 2=external-link" xmlns="http://www.w3.org/2000/svg" xmlns:xlink="http://www.w3.org/1999/xlink" width="24" height="24" viewBox="0 0 24 24">
  <defs>
    <clipPath id="clip-path"/>
  </defs>
  <rect id="Outline_2_external-link_Background_" data-name="Outline 2=external-link (Background)" width="24" height="24" fill="none"/>
  <path id="Mask" d="M3,18a3,3,0,0,1-3-3V3A3,3,0,0,1,3,0H9A1,1,0,0,1,9,2H3A1,1,0,0,0,2,3V15a1,1,0,0,0,1,1H15a1,1,0,0,0,1-1V9a1,1,0,1,1,2,0v6a3,3,0,0,1-3,3ZM8.293,9.707a1,1,0,0,1,0-1.415l6.286-6.285L13,2a1,1,0,0,1,0-2h.005l4,.02a1,1,0,0,1,1,1L18,5a1,1,0,0,1-1,1h0a1,1,0,0,1-1-1V3.415L9.707,9.707a1,1,0,0,1-1.415,0Z" transform="translate(3 3)" fill="#5367ff"/>
</svg>
