<svg width="24" height="24" viewBox="0 0 24 24" fill="none" xmlns="http://www.w3.org/2000/svg">
<g id="Outline 2=log-out">
<path id="Mask" fill-rule="evenodd" clip-rule="evenodd" d="M5 16C5.55 16 6 16.45 6 17V18H18V17C18 16.45 18.45 16 19 16C19.55 16 20 16.45 20 17V19C20 19.55 19.55 20 19 20H5C4.45 20 4 19.55 4 19V17C4 16.45 4.45 16 5 16ZM7.4248 5.9961L11.4248 3.1821C11.7788 2.9321 12.2538 2.9401 12.5998 3.2001L16.5998 6.2001C16.8618 6.3961 16.9998 6.6971 16.9998 7.0011C16.9998 7.2091 16.9348 7.4201 16.7998 7.6001C16.4688 8.0421 15.8418 8.1311 15.4008 7.8001L12.9998 5.9991V6.0001V14.0001C12.9998 14.5521 12.5528 15.0001 11.9998 15.0001C11.4468 15.0001 10.9998 14.5521 10.9998 14.0001V6.0001C10.9998 5.98357 11.0044 5.96825 11.0089 5.95281C11.0127 5.94023 11.0165 5.92757 11.0178 5.9141L8.5748 7.6321C8.1238 7.9501 7.4998 7.8411 7.1818 7.3891C6.8628 6.9381 6.9728 6.3141 7.4248 5.9961Z" fill="#DC2626"/>
</g>
</svg>
